<svg xmlns="http://www.w3.org/2000/svg" xmlns:xlink="http://www.w3.org/1999/xlink" width="256" height="256" x="0" y="0" version="1.1" viewBox="0 0 256 256" xml:space="preserve" style="enable-background:new 0 0 256 256"><style type="text/css">.st0{fill:url(#SVGID_1_);stroke:#2064a9;stroke-miterlimit:10}.st1,.st2{fill:url(#SVGID_2_);fill-opacity:.95}.st2{fill:#ffb700}.st3{filter:url(#AI_GaussianBlur_4)}.st4{fill:#ffffa6}.st5{fill:url(#SVGID_3_);fill-opacity:.95}</style><filter id="AI_GaussianBlur_4"><feGaussianBlur stdDeviation="4"/></filter><g id="the_e"><radialGradient id="SVGID_1_" cx="143.516" cy="115.761" r="104.426" fx="138.954" fy="113.59" gradientTransform="matrix(0.6237 0.7816 -0.7859 0.6271 144.9713 -69.0107)" gradientUnits="userSpaceOnUse"><stop offset="0" style="stop-color:#89eafe"/><stop offset=".262" style="stop-color:#86e8fd"/><stop offset=".436" style="stop-color:#7ddff9"/><stop offset=".583" style="stop-color:#6ed2f2"/><stop offset=".716" style="stop-color:#59bee9"/><stop offset=".84" style="stop-color:#3ea5dd"/><stop offset=".954" style="stop-color:#1c87cf"/><stop offset="1" style="stop-color:#0d79c8"/></radialGradient><path d="M100.5,117.8c2.6-23.3,21-42,43.9-42c25.7,0,43.4,18,45,42H100.5z M184.7,167c-6.5,13.4-20,22.1-40.4,22.6 c-28.3,0.7-43.2-23.4-43.9-44.1h84h4.9h56.9c0.5-4.2,0.8-8.4,0.8-12.8c0-56.4-45.7-102.1-102.1-102.1 c-56.4,0-102.1,45.7-102.1,102.1s45.7,102.1,102.1,102.1c44.4,0,82.1-28.3,96.2-67.8H184.7z" class="st0"/></g><g id="halo"><linearGradient id="SVGID_2_" x1="237.882" x2="234.565" y1="64.28" y2="79.694" gradientUnits="userSpaceOnUse"><stop offset="0" style="stop-color:#ffb700"/><stop offset=".86" style="stop-color:#ffb700;stop-opacity:0"/></linearGradient><path d="M235.5,63.7c-0.8,3.1-1.6,5.8-2.1,8.1c-0.4,1.8-0.6,7.1-0.6,7.1s3.8-2.4,4.7-3.6c0.8-1.1,1.9-5.8,2.9-10.5 L235.5,63.7z" class="st1"/><path d="M240.6,65c0.7-3.1,1.3-6.3,1.6-8.5c1.3-8.1,4-51.3-53.7-39C111.1,33.9,68.3,94.6,61.5,103 c-12.9,16-51.3,77.8-41.2,115.8c5.9,22.2,29.5,22.1,46.7,18.6l-1.2-6.1c-29.2,4.7-33.6-17.5-29.6-34.8 c4.9-21.6,20.8-57.1,72.2-107.1c45.6-44.4,94-69.2,119.2-56.9c13.4,6.5,10.8,20.6,7.9,31.4L240.6,65z" class="st2"/><g class="st3"><path d="M188.5,17.5C111.1,33.9,68.3,94.6,61.5,103c-8.1,10-26.1,38-36,66.8c-0.6,2.3-1.3,4.6-2.1,6.6c0,0,0,0,0,0 C55.2,94.9,134.2,37.2,191.6,16.9C190.6,17.1,189.5,17.3,188.5,17.5z" class="st4"/></g><linearGradient id="SVGID_3_" x1="66.431" x2="87.933" y1="235.127" y2="226.499" gradientUnits="userSpaceOnUse"><stop offset="0" style="stop-color:#ffb700"/><stop offset="1" style="stop-color:#ffb700;stop-opacity:0"/></linearGradient><path d="M67,237.3c9.4-2,17.1-5,18.8-5.9c1.6-0.9,7.1-3.9,12.1-6.9l-4.4-2.5c-2.4,0.9-5.2,2-8.3,3.3 c-7.3,3-13.9,4.9-19.4,5.7L67,237.3z" class="st5"/></g></svg>