<svg xmlns="http://www.w3.org/2000/svg" xmlns:xlink="http://www.w3.org/1999/xlink" id="Layer_1" width="75" height="75" x="0" y="0" enable-background="new 0 0 75 75" version="1.1" viewBox="0 0 75 75" xml:space="preserve"><g><path fill="none" stroke="#21A0DF" stroke-linecap="round" stroke-linejoin="round" stroke-miterlimit="10" stroke-width="1.75" d="M52.641,66.489"/></g><g><path fill="none" stroke="#21A0DF" stroke-linecap="round" stroke-linejoin="round" stroke-miterlimit="10" stroke-width="1.75" d="M57.921,65.491"/></g><g><g><path fill="none" stroke="#21A0DF" stroke-linecap="round" stroke-linejoin="round" stroke-miterlimit="10" stroke-width="1.75" d="M53.936,70.87c0,1.066-0.863,1.934-1.934,1.934H22.996c-1.067,0-1.934-0.867-1.934-1.934l-4.836-41.04 c0-1.068,0.865-1.934,1.934-1.934h38.68c1.066,0,1.934,0.865,1.934,1.934L53.936,70.87z"/><g><line x1="28.981" x2="29.308" y1="64.313" y2="67.222" fill="none" stroke="#21A0DF" stroke-linecap="round" stroke-linejoin="round" stroke-miterlimit="10" stroke-width="1.75"/><line x1="25.676" x2="26.435" y1="34.846" y2="41.617" fill="none" stroke="#21A0DF" stroke-linecap="round" stroke-linejoin="round" stroke-miterlimit="10" stroke-width="1.75"/><line x1="46.018" x2="45.691" y1="64.315" y2="67.222" fill="none" stroke="#21A0DF" stroke-linecap="round" stroke-linejoin="round" stroke-miterlimit="10" stroke-width="1.75"/><line x1="49.322" x2="48.59" y1="34.846" y2="41.371" fill="none" stroke="#21A0DF" stroke-linecap="round" stroke-linejoin="round" stroke-miterlimit="10" stroke-width="1.75"/><line x1="37.306" x2="37.306" y1="65.769" y2="67.222" fill="none" stroke="#21A0DF" stroke-linecap="round" stroke-linejoin="round" stroke-miterlimit="10" stroke-width="1.75"/><line x1="37.306" x2="37.306" y1="34.846" y2="36.875" fill="none" stroke="#21A0DF" stroke-linecap="round" stroke-linejoin="round" stroke-miterlimit="10" stroke-width="1.75"/></g></g></g><g><circle cx="37.5" cy="51.575" r="10.203" fill="none" stroke="#21A0DF" stroke-linecap="round" stroke-linejoin="round" stroke-miterlimit="10" stroke-width="1.75"/><g><line x1="32.717" x2="42.285" y1="46.79" y2="56.358" fill="none" stroke="#21A0DF" stroke-linecap="round" stroke-linejoin="round" stroke-miterlimit="10" stroke-width="1.75"/><line x1="32.717" x2="42.285" y1="56.358" y2="46.79" fill="none" stroke="#21A0DF" stroke-linecap="round" stroke-linejoin="round" stroke-miterlimit="10" stroke-width="1.75"/></g></g><g><g><path fill="#21A0DF" stroke="#21A0DF" stroke-linecap="round" stroke-linejoin="round" stroke-miterlimit="10" d="M30.396,27.369 l-3.276-7.024l2.402-1.121c2.317-1.08,3.895-0.719,4.733,1.081c0.438,0.939,0.455,1.809,0.05,2.612 c-0.405,0.803-1.203,1.481-2.396,2.039l-1.089,0.508l0.857,1.838 M30.39,24.54l0.97-0.453c0.955-0.445,1.573-0.922,1.857-1.429 c0.282-0.508,0.265-1.101-0.052-1.781c-0.286-0.613-0.699-0.976-1.24-1.089c-0.543-0.112-1.237,0.029-2.086,0.425l-1.204,0.562 L30.39,24.54z"/><path fill="#21A0DF" stroke="#21A0DF" stroke-linecap="round" stroke-linejoin="round" stroke-miterlimit="10" d="M46.293,22.687 l-1.076,0.502l-2.033-4.36l-4.883,2.276l2.034,4.361l-1.078,0.501L34.936,16.7l1.078-0.502l1.839,3.943l4.88-2.276l-1.838-3.943 l1.076-0.501L46.293,22.687z"/><path fill="#21A0DF" stroke="#21A0DF" stroke-linecap="round" stroke-linejoin="round" stroke-miterlimit="10" d="M51.648,12.196 c0.436,0.938,0.454,1.808,0.049,2.611c-0.406,0.804-1.203,1.483-2.395,2.039l-1.09,0.509L49.911,21l-1.076,0.502l-4.322-9.266 l2.401-1.121C49.23,10.036,50.809,10.396,51.648,12.196z M47.781,16.43l0.969-0.453c0.954-0.445,1.574-0.921,1.857-1.429 c0.281-0.506,0.266-1.101-0.053-1.781c-0.285-0.612-0.698-0.976-1.239-1.088c-0.542-0.112-1.237,0.029-2.087,0.425l-1.203,0.56 L47.781,16.43z"/></g><path fill="none" stroke="#21A0DF" stroke-linecap="round" stroke-linejoin="round" stroke-miterlimit="10" stroke-width="1.75" d="M20.102,27.406c-0.618-4.872,5.762-11.804,15.299-16.251c10.491-4.893,20.834-4.923,23.098-0.07 c2.069,4.442-3.342,11.436-12.312,16.34"/></g></svg>