<svg xmlns="http://www.w3.org/2000/svg" xmlns:xlink="http://www.w3.org/1999/xlink" version="1.1" viewBox="0 0 314 314"><g fill-rule="evenodd" stroke="none" stroke-width="1"><g><g transform="translate(-465.000000, -660.000000) translate(465.000000, 660.000000)"><polygon points="92.239 87 123.227 87 157.526 139.019 192.197 87.086 221.952 87.086 174.821 156.599 223.403 227.489 191.968 227.489 157.755 175.689 122.393 227.352 91 227.352 140.284 156.523"/><path d="M157,314 C70.2912943,314 0,243.708706 0,157 C0,70.2912943 70.2912943,0 157,0 C243.708706,0 314,70.2912943 314,157 C314,243.708706 243.708706,314 157,314 Z M157,291 C231.006156,291 291,231.006156 291,157 C291,82.9938435 231.006156,23 157,23 C82.9938435,23 23,82.9938435 23,157 C23,231.006156 82.9938435,291 157,291 Z"/></g></g></g></svg>